<svg width="69" height="100" viewBox="0 0 69 100" fill="none" xmlns="http://www.w3.org/2000/svg">
<path d="M28.996 61.7866C32.0379 60.6823 33.9551 58.1406 37.566 58.4585C43.9882 59.0255 48.5448 66.2442 54.7258 61.3465C62.2067 55.4146 60.242 19.7338 56.9985 11.652C54.248 4.79755 49.1773 11.4981 41.9415 9.19562C33.5341 6.52043 26.2865 13.1542 21.9394 20.0424C17.4158 27.2148 15.0856 36.3479 15.7537 44.7627C16.3703 52.5372 17.7753 65.8609 28.996 61.7866" fill="#5C73C1"/>
<path d="M0.29811 99.4996H16.0616L18.8801 88.1175C18.8801 88.1175 21.1713 70.8405 9.32476 70.5993C9.32476 70.5993 3.17614 74.9101 1.50021 85.0498C1.50021 85.0498 0.173869 93.1539 0.29811 99.4996Z" fill="#63CCE8"/>
<path d="M55.0497 99.4996L52.9231 90.913C52.9231 90.913 50.6319 73.6366 62.4791 73.3954C62.4791 73.3954 69.5833 78.5706 68.9614 99.4996H55.0497Z" fill="#63CCE8"/>
<path d="M43.1425 66.6783H28.7595V45.6218H43.1425V66.6783Z" fill="#ACE4F7"/>
<path d="M28.7595 54.2158V45.6219H43.1425V58.0012C38.3975 57.8565 32.7683 56.998 28.7595 54.2158Z" fill="#80D6F5"/>
<path d="M62.2067 73.3948C58.979 68.4019 53.9076 67.0472 53.9076 67.0472L41.7511 62.544H30.1498L15.2877 67.0472C15.2877 67.0472 10.213 68.4019 6.98606 73.3948H62.2067" fill="#ACE4F7"/>
<path d="M59.2297 99.4996H11.34L11.6459 90.5026L4.60384 79.8468C6.16875 69.4718 15.2879 67.0471 15.2879 67.0471L26.9924 63.715C26.9924 63.715 26.2945 67.5256 35.9516 67.5256C35.9516 67.5256 43.7101 67.5256 44.6373 63.6119L53.9078 67.0471C53.9078 67.0471 60.6994 69.1236 64.4088 75.9893L59.2297 90.5026V99.4996" fill="#63CCE8"/>
<path d="M27.1924 47.2991C27.6841 48.4365 28.3687 49.4899 29.3277 50.4138C31.712 52.7123 34.5081 54.5753 37.5732 55.8335C41.3341 57.3767 47.0115 57.5743 50.0006 54.4761C52.4226 51.9648 53.7516 48.1616 54.8031 44.9002C56.8478 38.5585 56.822 31.6307 56.3019 25.0452C56.1829 23.543 56.0309 22.0395 55.7811 20.5526C53.441 6.18935 41.1517 6.22106 41.1517 6.22106C31.8713 5.81727 23.4004 10.2021 21.975 19.9823C21.4264 23.7274 22.1488 27.7501 22.3371 31.4952C22.4752 34.247 22.8129 36.9929 23.6938 39.6179C24.5913 42.297 26.0736 44.7138 27.1924 47.2991" fill="#ACE4F7"/>
<path d="M57.296 33.5135C60.7649 22.7738 57.9661 10.146 53.8206 6.19532C42.0778 -5.00701 20.3904 -0.743768 13.7633 16.7685C11.7167 22.177 12.6775 42.3473 13.6054 48.5475C14.8478 56.8533 17.9016 62.544 24.2089 62.544C24.0403 55.6948 24.5657 48.1074 23.9591 39.7342C23.3557 31.4258 24.4613 31.2223 31.3745 27.3569C34.8136 25.4318 36.8114 23.4267 38.948 20.3061C41.5914 16.4427 39.6029 15.0912 44.8355 15.2657C44.8355 15.2657 56.998 14.8513 57.296 33.5135" fill="#5C73C1"/>
<path d="M25.9932 36.348C25.9932 36.348 24.766 31.2368 20.8359 33.349C20.8359 33.349 19.0615 34.2471 20.3403 37.7563C20.3403 37.7563 22.2052 42.8059 25.9972 40.9595L25.9932 36.348" fill="#ACE4F7"/>
</svg>
