<svg width="71" height="99" viewBox="0 0 71 99" fill="none" xmlns="http://www.w3.org/2000/svg">
<path d="M6.55444 73.8139C9.94885 68.5626 15.2833 67.1392 15.2833 67.1392L28.0652 62.4026H40.2667L53.0445 67.1392C53.0445 67.1392 58.3784 68.5626 61.7739 73.8139H6.55444Z" fill="#ACE4F7"/>
<path d="M50.8319 98.6854H70.5786C70.5786 95.3132 70.3585 90.5067 70.3585 90.5067C69.198 70.3139 54.4819 67.1391 54.4819 67.1391C43.0072 64.3607 49.2617 82.1091 49.2617 82.1091C48.9616 86.3861 49.5981 92.1395 50.8319 98.6854" fill="#63CCE8"/>
<path d="M25.7903 66.7499H42.5412V50.4178H25.7903V66.7499Z" fill="#ACE4F7"/>
<path d="M42.5412 58.0092V50.4178H25.7903V54.1782C30.5683 58.1546 36.3238 58.6595 42.5412 58.0092" fill="#80D6F5"/>
<path d="M60.374 98.6854C60.6952 89.8794 60.5974 87.4608 60.5188 84.4569C60.3436 77.7665 58.9129 72.1114 54.5029 67.1451L54.4818 67.1391L42.5399 63.2452C42.5399 63.2452 45.0512 67.6407 34.0762 67.6407C34.0762 67.6407 26.8463 67.3591 25.7903 63.2452L13.6633 67.1391C13.6633 67.1391 3.29615 69.6886 1.51855 80.6009L7.61352 91.8065L7.39636 98.6854H60.374Z" fill="#63CCE8"/>
<path d="M54.1071 26.0894C54.1065 22.2075 53.9419 18.3342 54.0331 14.4569C54.0926 11.9786 54.3206 12.617 51.4498 12.3461C47.4714 11.9674 46.1417 19.3572 45.8628 22.5545C45.4782 26.9624 46.4325 31.7068 47.1661 36.0037C47.4298 37.5554 47.3584 40.6661 48.9835 41.3938C50.3726 42.0156 51.8225 40.4811 52.5528 39.3457C54.2307 36.7327 53.934 32.7391 54.045 29.7738C54.0906 28.5445 54.1071 27.3167 54.1071 26.0894" fill="#5C73C1"/>
<path d="M52.3855 48.1452C50.6924 54.7697 47.7106 56.5957 47.7106 56.5957L43.7117 57.3755C41.4105 57.084 37.4414 56.1463 37.4414 56.1463C28.3062 53.0409 25.6595 52.2029 24.2432 48.7307C24.1838 48.5833 17.0425 23.7956 17.0425 23.7956C15.8744 11.0369 29.2288 8.38223 31.2451 8.04916C33.2396 7.58919 45.9553 4.05555 49.7117 16.3034C49.7117 16.3034 55.2603 30.4948 52.3855 48.1452Z" fill="#ACE4F7"/>
<path d="M15.6715 12.0844C11.2331 14.2229 11.0816 18.1848 11.2892 22.6893C11.4502 26.182 12.5293 29.1611 13.7783 32.5487C15.9085 38.328 15.9085 38.328 17.7968 41.6502C17.7968 41.6502 20.7388 46.2227 24.5275 49.3572C23.4298 45.01 23.1225 41.7625 22.1233 38.4232C20.9198 34.4137 21.2721 29.0448 23.0577 24.9309C23.0577 24.9309 24.0689 22.1916 28.2211 21.4098C32.3733 20.628 28.2211 21.4098 28.2211 21.4098L15.6715 12.0844" fill="#4F62A5"/>
<path d="M22.9638 37.562C22.9638 37.562 20.7056 32.6426 17.1568 35.557C17.1568 35.557 15.5408 36.8179 17.5311 40.1103C17.5311 40.1103 20.4213 44.8434 23.8843 42.2205L22.9638 37.562" fill="#ACE4F7"/>
<path d="M22.6101 26.0894C22.6101 26.0894 22.6247 34.8967 24.2431 39.5677L22.5269 39.9081C22.5269 39.9081 21.6241 33.8678 18.5149 33.7964L22.6101 26.0894Z" fill="#4F62A5"/>
<path d="M56.3025 7.22699C70.5785 21.766 27.3777 21.6187 27.3777 21.6187C27.3777 21.6187 22.8462 23.7136 15.6714 12.0844C15.6714 12.0844 13.7363 2.9882 34.1641 0.124673C34.1641 0.124673 47.6669 -1.53146 56.3025 7.22699Z" fill="#5C73C1"/>
<path d="M18.4588 98.6854H0C0.0058817 98.6854 0.0642361 94.3038 0.0743474 93.9928C0.212666 89.6845 0.485275 85.3447 1.26179 81.0979C2.37105 75.0285 5.31865 69.6458 11.8068 68.1033C14.776 67.3975 17.4159 69.1943 19.0241 71.6382C19.0241 71.6382 21.9614 75.259 18.4588 98.6854" fill="#63CCE8"/>
</svg>
